bold.ufo
<glyph name="P" format="1">
  <advance width="1157"/>
  <unicode hex="0050"/>
  <outline>
    <contour>
      <point x="445" y="697" type="line"/>
      <point x="536" y="697" type="line" smooth="yes"/>
      <point x="708" y="697"/>
      <point x="793" y="766"/>
      <point x="793" y="895" type="curve" smooth="yes"/>
      <point x="793" y="1027"/>
      <point x="724" y="1087"/>
      <point x="571" y="1087" type="curve" smooth="yes"/>
      <point x="445" y="1087" type="line"/>
    </contour>
    <contour>
      <point x="1075" y="905" type="curve" smooth="yes"/>
      <point x="1075" y="622"/>
      <point x="891" y="468"/>
      <point x="564" y="468" type="curve" smooth="yes"/>
      <point x="445" y="468" type="line"/>
      <point x="445" y="0" type="line"/>
      <point x="166" y="0" type="line"/>
      <point x="166" y="1316" type="line"/>
      <point x="586" y="1316" type="line" smooth="yes"/>
      <point x="905" y="1316"/>
      <point x="1075" y="1178"/>
    </contour>
  </outline>
</glyph>
<glyph name="uni02BC" format="1">
  <advance width="781"/>
  <unicode hex="02BC"/>
  <outline>
    <contour>
      <point x="0" y="0" type="line"/>
      <point x="781" y="0" type="line"/>
      <point x="781" y="20" type="line"/>
      <point x="0" y="20" type="line"/>
    </contour>
  </outline>
</glyph>
<glyph name="anusvaradeva" format="1">
  <advance width="0"/>
  <unicode hex="0902"/>
  <outline>
    <contour>
      <point x="-337" y="1648" type="curve" smooth="yes"/>
      <point x="-252" y="1664"/>
      <point x="-208" y="1615"/>
      <point x="-195" y="1566" type="curve" smooth="yes"/>
      <point x="-181" y="1517"/>
      <point x="-211" y="1450"/>
      <point x="-296" y="1433" type="curve" smooth="yes"/>
      <point x="-376" y="1417"/>
      <point x="-425" y="1465"/>
      <point x="-439" y="1516" type="curve" smooth="yes"/>
      <point x="-452" y="1566"/>
      <point x="-419" y="1631"/>
    </contour>
    <contour>
      <point x="49" y="8" type="move" name="x12"/>
    </contour>
    <contour>
      <point x="-424" y="1282" type="move" name="_mark0"/>
    </contour>
  </outline>
</glyph>
<glyph name="edeva" format="1">
  <advance width="1229"/>
  <unicode hex="090F"/>
  <outline>
    <contour>
      <point x="1059" y="1139" type="line"/>
      <point x="1059" y="737" type="line"/>
      <point x="1059" y="615"/>
      <point x="1022" y="522"/>
      <point x="938" y="426" type="curve"/>
      <point x="712" y="548" type="line"/>
      <point x="754" y="632"/>
      <point x="771" y="694"/>
      <point x="771" y="811" type="curve" smooth="yes"/>
      <point x="771" y="1139" type="line"/>
    </contour>
    <contour>
      <point x="-33" y="1096" type="line"/>
      <point x="-33" y="1288" type="line"/>
      <point x="1277" y="1288" type="line"/>
      <point x="1277" y="1096" type="line"/>
    </contour>
    <contour>
      <point x="115" y="1139" type="line"/>
      <point x="402" y="1139" type="line"/>
      <point x="402" y="695" type="line"/>
      <point x="402" y="590"/>
      <point x="437" y="530"/>
      <point x="524" y="474" type="curve" smooth="yes"/>
      <point x="903" y="228" type="line"/>
      <point x="1025" y="149"/>
      <point x="1063" y="81"/>
      <point x="1063" y="7" type="curve" smooth="yes"/>
      <point x="1063" y="-68"/>
      <point x="1050" y="-114"/>
      <point x="1011" y="-196" type="curve"/>
      <point x="711" y="-128" type="line"/>
      <point x="733" y="-90"/>
      <point x="749" y="-57"/>
      <point x="749" y="-20" type="curve" smooth="yes"/>
      <point x="749" y="14"/>
      <point x="726" y="50"/>
      <point x="677" y="83" type="curve" smooth="yes"/>
      <point x="296" y="346" type="line"/>
      <point x="168" y="434"/>
      <point x="115" y="544"/>
      <point x="115" y="697" type="curve" smooth="yes"/>
    </contour>
    <contour>
      <point x="-70" y="8" type="move" name="x44"/>
    </contour>
    <contour>
      <point x="827" y="1282" type="move" name="mark0"/>
    </contour>
  </outline>
</glyph>
<glyph name="khadeva" format="1">
  <advance width="1735"/>
  <unicode hex="0916"/>
  <outline>
    <contour>
      <point x="1305" y="673" type="curve"/>
      <point x="1305" y="388" type="line"/>
      <point x="1234" y="353"/>
      <point x="1177" y="331"/>
      <point x="1090" y="331" type="curve" smooth="yes"/>
      <point x="886" y="331"/>
      <point x="701" y="476"/>
      <point x="701" y="676" type="curve" smooth="yes"/>
      <point x="701" y="831"/>
      <point x="811" y="955"/>
      <point x="1024" y="955" type="curve" smooth="yes"/>
      <point x="1144" y="955"/>
      <point x="1227" y="922"/>
      <point x="1311" y="880" type="curve"/>
      <point x="1311" y="689" type="line"/>
      <point x="1240" y="735"/>
      <point x="1168" y="761"/>
      <point x="1091" y="761" type="curve" smooth="yes"/>
      <point x="983" y="761"/>
      <point x="933" y="698"/>
      <point x="933" y="636" type="curve" smooth="yes"/>
      <point x="933" y="577"/>
      <point x="981" y="530"/>
      <point x="1050" y="530" type="curve" smooth="yes"/>
      <point x="1150" y="530"/>
      <point x="1235" y="572"/>
    </contour>
    <contour>
      <point x="225" y="701" type="line"/>
      <point x="376" y="751"/>
      <point x="414" y="828"/>
      <point x="414" y="959" type="curve" smooth="yes"/>
      <point x="414" y="1169" type="line"/>
      <point x="702" y="1169" type="line"/>
      <point x="702" y="943" type="line"/>
      <point x="702" y="742"/>
      <point x="649" y="567"/>
      <point x="393" y="449" type="curve"/>
    </contour>
    <contour>
      <point x="-49" y="1096" type="line"/>
      <point x="-49" y="1288" type="line"/>
      <point x="1778" y="1288" type="line"/>
      <point x="1778" y="1096" type="line"/>
    </contour>
    <contour>
      <point x="333" y="634" type="line"/>
      <point x="505" y="307"/>
      <point x="746" y="184"/>
      <point x="1005" y="184" type="curve" smooth="yes"/>
      <point x="1181" y="184"/>
      <point x="1259" y="215"/>
      <point x="1408" y="312" type="curve"/>
      <point x="1486" y="113" type="line"/>
      <point x="1335" y="46"/>
      <point x="1179" y="2"/>
      <point x="977" y="2" type="curve" smooth="yes"/>
      <point x="738" y="2"/>
      <point x="507" y="67"/>
      <point x="301" y="273" type="curve" smooth="yes"/>
      <point x="134" y="440"/>
      <point x="22" y="636"/>
      <point x="22" y="722" type="curve" smooth="yes"/>
      <point x="22" y="789"/>
      <point x="73" y="839"/>
      <point x="148" y="839" type="curve" smooth="yes"/>
      <point x="213" y="839"/>
      <point x="256" y="802"/>
      <point x="318" y="725" type="curve" smooth="yes"/>
      <point x="364" y="662" type="line"/>
    </contour>
    <contour>
      <point x="1266" y="1132" type="line"/>
      <point x="1554" y="1132" type="line"/>
      <point x="1554" y="0" type="line"/>
      <point x="1266" y="0" type="line"/>
    </contour>
  </outline>
</glyph>
<glyph name="gadeva" format="1">
  <advance width="1364"/>
  <unicode hex="0917"/>
  <outline>
    <contour>
      <point x="575" y="1129" type="line"/>
      <point x="575" y="421" type="line"/>
      <point x="575" y="336"/>
      <point x="554" y="289"/>
      <point x="476" y="289" type="curve" smooth="yes"/>
      <point x="332" y="289"/>
      <point x="85" y="468"/>
      <point x="83" y="590" type="curve" smooth="yes"/>
      <point x="82" y="652"/>
      <point x="116" y="694"/>
      <point x="200" y="694" type="curve" smooth="yes"/>
      <point x="328" y="694" type="line"/>
      <point x="287" y="655" type="line"/>
      <point x="287" y="1129" type="line"/>
    </contour>
    <contour>
      <point x="894" y="1132" type="line"/>
      <point x="1183" y="1132" type="line"/>
      <point x="1183" y="0" type="line"/>
      <point x="894" y="0" type="line"/>
    </contour>
    <contour>
      <point x="1406" y="1096" type="line"/>
      <point x="-43" y="1096" type="line"/>
      <point x="-43" y="1288" type="line"/>
      <point x="1406" y="1288" type="line"/>
    </contour>
  </outline>
</glyph>
<glyph name="ngadeva" format="1">
  <advance width="1404"/>
  <unicode hex="0919"/>
  <outline>
    <contour>
      <point x="1105" y="966" type="curve"/>
      <point x="1105" y="983"/>
      <point x="1111" y="1162"/>
      <point x="1125" y="1162" type="curve"/>
      <point x="1139" y="1162"/>
      <point x="1428" y="1154"/>
      <point x="1428" y="1138" type="curve"/>
      <point x="1428" y="1121"/>
      <point x="1421" y="942"/>
      <point x="1407" y="942" type="curve"/>
      <point x="1394" y="942"/>
      <point x="1105" y="950"/>
    </contour>
    <contour>
      <point x="1199" y="921" type="curve" smooth="yes"/>
      <point x="1298" y="921"/>
      <point x="1330" y="882"/>
      <point x="1330" y="836" type="curve" smooth="yes"/>
      <point x="1330" y="790"/>
      <point x="1357" y="729"/>
      <point x="1264" y="729" type="curve" smooth="yes"/>
      <point x="1164" y="729"/>
      <point x="1130" y="769"/>
      <point x="1130" y="814" type="curve" smooth="yes"/>
      <point x="1130" y="860"/>
      <point x="1102" y="921"/>
    </contour>
    <component base="ddadeva"/>
    <contour>
      <point x="25" y="8" type="move" name="x56"/>
    </contour>
    <contour>
      <point x="1714" y="8" type="move" name="x57"/>
    </contour>
    <contour>
      <point x="830" y="8" type="move" name="mark0"/>
    </contour>
  </outline>
</glyph>
<glyph name="cadeva" format="1">
  <advance width="1356"/>
  <unicode hex="091A"/>
  <outline>
    <contour>
      <point x="22" y="694" type="line"/>
      <point x="22" y="913" type="line"/>
      <point x="751" y="913" type="line"/>
      <point x="751" y="694" type="line"/>
    </contour>
    <contour>
      <point x="928" y="642" type="curve"/>
      <point x="928" y="255" type="line"/>
      <point x="857" y="217"/>
      <point x="786" y="189"/>
      <point x="673" y="189" type="curve" smooth="yes"/>
      <point x="383" y="189"/>
      <point x="228" y="358"/>
      <point x="228" y="565" type="curve" smooth="yes"/>
      <point x="228" y="763"/>
      <point x="355" y="901"/>
      <point x="649" y="901" type="curve"/>
      <point x="680" y="696" type="line"/>
      <point x="558" y="697"/>
      <point x="501" y="609"/>
      <point x="501" y="534" type="curve" smooth="yes"/>
      <point x="501" y="465"/>
      <point x="559" y="415"/>
      <point x="634" y="415" type="curve" smooth="yes"/>
      <point x="741" y="415"/>
      <point x="870" y="481"/>
    </contour>
    <contour>
      <point x="-20" y="1096" type="line"/>
      <point x="-20" y="1288" type="line"/>
      <point x="1400" y="1288" type="line"/>
      <point x="1400" y="1096" type="line"/>
    </contour>
    <contour>
      <point x="887" y="1132" type="line"/>
      <point x="1175" y="1132" type="line"/>
      <point x="1175" y="0" type="line"/>
      <point x="887" y="0" type="line"/>
    </contour>
  </outline>
</glyph>
<glyph name="chadeva" format="1">
  <advance width="1521"/>
  <unicode hex="091B"/>
  <outline>
    <contour>
      <point x="650" y="796" type="curve"/>
      <point x="723" y="573" type="line"/>
      <point x="722" y="573"/>
      <point x="719" y="573"/>
      <point x="718" y="573" type="curve" smooth="yes"/>
      <point x="528" y="561"/>
      <point x="470" y="480"/>
      <point x="470" y="401" type="curve" smooth="yes"/>
      <point x="470" y="311"/>
      <point x="542" y="239"/>
      <point x="695" y="239" type="curve" smooth="yes"/>
      <point x="960" y="239"/>
      <point x="1219" y="479"/>
      <point x="1219" y="666" type="curve" smooth="yes"/>
      <point x="1219" y="753"/>
      <point x="1172" y="801"/>
      <point x="1112" y="801" type="curve" smooth="yes"/>
      <point x="1056" y="801"/>
      <point x="1017" y="752"/>
      <point x="1017" y="683" type="curve" smooth="yes"/>
      <point x="1017" y="600"/>
      <point x="1071" y="521"/>
      <point x="1256" y="384" type="curve"/>
      <point x="1118" y="254" type="line"/>
      <point x="868" y="424"/>
      <point x="778" y="555"/>
      <point x="778" y="735" type="curve" smooth="yes"/>
      <point x="778" y="867"/>
      <point x="863" y="1001"/>
      <point x="1079" y="1001" type="curve" smooth="yes"/>
      <point x="1306" y="1001"/>
      <point x="1455" y="854"/>
      <point x="1455" y="633" type="curve" smooth="yes"/>
      <point x="1455" y="360"/>
      <point x="1153" y="22"/>
      <point x="703" y="22" type="curve" smooth="yes"/>
      <point x="359" y="22"/>
      <point x="183" y="224"/>
      <point x="183" y="441" type="curve" smooth="yes"/>
      <point x="183" y="628"/>
      <point x="332" y="790"/>
      <point x="645" y="796" type="curve" smooth="yes"/>
      <point x="647" y="796"/>
      <point x="648" y="796"/>
    </contour>
    <contour>
      <point x="564" y="757" type="curve"/>
      <point x="375" y="609" type="line"/>
      <point x="154" y="676"/>
      <point x="69" y="801"/>
      <point x="69" y="961" type="curve" smooth="yes"/>
      <point x="69" y="1091"/>
      <point x="192" y="1247"/>
      <point x="478" y="1264" type="curve"/>
      <point x="573" y="1116" type="line"/>
      <point x="419" y="1100"/>
      <point x="352" y="1010"/>
      <point x="352" y="932" type="curve" smooth="yes"/>
      <point x="352" y="852"/>
      <point x="402" y="784"/>
    </contour>
    <contour>
      <point x="1560" y="1096" type="line"/>
      <point x="-67" y="1096" type="line"/>
      <point x="-67" y="1288" type="line"/>
      <point x="1560" y="1288" type="line"/>
    </contour>
    <contour>
      <point x="951" y="1142" type="line"/>
      <point x="1240" y="1142" type="line"/>
      <point x="1240" y="895" type="line"/>
      <point x="951" y="895" type="line"/>
    </contour>
    <contour>
      <point x="841" y="8" type="move" name="mark0"/>
    </contour>
    <contour>
      <point x="-61" y="8" type="move" name="x65"/>
    </contour>
    <contour>
      <point x="1616" y="8" type="move" name="x66"/>
    </contour>
  </outline>
</glyph>
<glyph name="jhadeva" format="1">
  <advance width="1616"/>
  <unicode hex="091D"/>
  <outline>
    <contour>
      <point x="1193" y="327" type="line"/>
      <point x="1164" y="316"/>
      <point x="1094" y="306"/>
      <point x="1044" y="306" type="curve" smooth="yes"/>
      <point x="961" y="308"/>
      <point x="868" y="321"/>
      <point x="830" y="328" type="curve"/>
      <point x="830" y="382"/>
      <point x="822" y="450"/>
      <point x="822" y="539" type="curve"/>
      <point x="856" y="525"/>
      <point x="912" y="517"/>
      <point x="957" y="517" type="curve" smooth="yes"/>
      <point x="1030" y="517"/>
      <point x="1123" y="546"/>
      <point x="1193" y="605" type="curve"/>
    </contour>
    <contour>
      <point x="1146" y="1132" type="line"/>
      <point x="1435" y="1132" type="line"/>
      <point x="1435" y="0" type="line"/>
      <point x="1146" y="0" type="line"/>
    </contour>
    <contour>
      <point x="1658" y="1096" type="line"/>
      <point x="963" y="1096" type="line"/>
      <point x="963" y="1288" type="line"/>
      <point x="1658" y="1288" type="line"/>
    </contour>
    <component base="ideva"/>
  </outline>
</glyph>
<glyph name="nyadeva" format="1">
  <advance width="1576"/>
  <unicode hex="091E"/>
  <outline>
    <contour>
      <point x="830" y="465" type="curve"/>
      <point x="830" y="685" type="line"/>
      <point x="864" y="673"/>
      <point x="917" y="668"/>
      <point x="962" y="668" type="curve" smooth="yes"/>
      <point x="1025" y="668"/>
      <point x="1093" y="681"/>
      <point x="1172" y="719" type="curve"/>
      <point x="1172" y="457" type="line"/>
      <point x="1138" y="446"/>
      <point x="1075" y="439"/>
      <point x="1022" y="439" type="curve" smooth="yes"/>
      <point x="954" y="439"/>
      <point x="884" y="453"/>
    </contour>
    <contour>
      <point x="914" y="536" type="curve" smooth="yes"/>
      <point x="914" y="292"/>
      <point x="742" y="159"/>
      <point x="539" y="159" type="curve" smooth="yes"/>
      <point x="341" y="159"/>
      <point x="173" y="240"/>
      <point x="-27" y="424" type="curve"/>
      <point x="64" y="627" type="line"/>
      <point x="237" y="467"/>
      <point x="349" y="396"/>
      <point x="468" y="396" type="curve" smooth="yes"/>
      <point x="589" y="396"/>
      <point x="660" y="466"/>
      <point x="659" y="567" type="curve" smooth="yes"/>
      <point x="659" y="643"/>
      <point x="576" y="700"/>
      <point x="482" y="700" type="curve" smooth="yes"/>
      <point x="406" y="700"/>
      <point x="352" y="680"/>
      <point x="291" y="636" type="curve"/>
      <point x="194" y="843" type="line"/>
      <point x="275" y="892"/>
      <point x="359" y="926"/>
      <point x="501" y="927" type="curve" smooth="yes"/>
      <point x="705" y="927"/>
      <point x="914" y="777"/>
    </contour>
    <contour>
      <point x="-48" y="1096" type="line"/>
      <point x="-48" y="1288" type="line"/>
      <point x="1620" y="1288" type="line"/>
      <point x="1620" y="1096" type="line"/>
    </contour>
    <contour>
      <point x="1107" y="1132" type="line"/>
      <point x="1395" y="1132" type="line"/>
      <point x="1395" y="0" type="line"/>
      <point x="1107" y="0" type="line"/>
    </contour>
  </outline>
</glyph>
<glyph name="ttadeva" format="1">
  <advance width="1119"/>
  <unicode hex="091F"/>
  <outline>
    <contour>
      <point x="641" y="1134" type="line"/>
      <point x="915" y="1134" type="line"/>
      <point x="915" y="691" type="line"/>
      <point x="656" y="691" type="line"/>
      <point x="450" y="691"/>
      <point x="364" y="595"/>
      <point x="364" y="482" type="curve" smooth="yes"/>
      <point x="364" y="366"/>
      <point x="473" y="279"/>
      <point x="609" y="279" type="curve" smooth="yes"/>
      <point x="728" y="279"/>
      <point x="819" y="297"/>
      <point x="973" y="356" type="curve"/>
      <point x="1029" y="122" type="line"/>
      <point x="872" y="76"/>
      <point x="791" y="62"/>
      <point x="650" y="62" type="curve" smooth="yes"/>
      <point x="308" y="62"/>
      <point x="72" y="276"/>
      <point x="72" y="523" type="curve" smooth="yes"/>
      <point x="72" y="728"/>
      <point x="219" y="891"/>
      <point x="548" y="891" type="curve" smooth="yes"/>
      <point x="681" y="891" type="line"/>
      <point x="641" y="853" type="line"/>
    </contour>
    <contour>
      <point x="1153" y="1096" type="line"/>
      <point x="-60" y="1096" type="line"/>
      <point x="-60" y="1288" type="line"/>
      <point x="1153" y="1288" type="line"/>
    </contour>
    <contour>
      <point x="558" y="8" type="move" name="mark0"/>
    </contour>
    <contour>
      <point x="1133" y="8" type="move" name="x29"/>
    </contour>
    <contour>
      <point x="-59" y="8" type="move" name="x28"/>
    </contour>
  </outline>
</glyph>
<glyph name="ddhadeva" format="1">
  <advance width="1157"/>
  <unicode hex="0922"/>
  <outline>
    <contour>
      <point x="1170" y="1096" type="line"/>
      <point x="-77" y="1096" type="line"/>
      <point x="-77" y="1288" type="line"/>
      <point x="1170" y="1288" type="line"/>
    </contour>
    <contour>
      <point x="652" y="1126" type="line"/>
      <point x="926" y="1126" type="line"/>
      <point x="926" y="698" type="line"/>
      <point x="631" y="698" type="line"/>
      <point x="404" y="698"/>
      <point x="308" y="601"/>
      <point x="308" y="450" type="curve" smooth="yes"/>
      <point x="308" y="313"/>
      <point x="446" y="194"/>
      <point x="667" y="194" type="curve" smooth="yes"/>
      <point x="821" y="194"/>
      <point x="898" y="254"/>
      <point x="898" y="324" type="curve" smooth="yes"/>
      <point x="898" y="373"/>
      <point x="859" y="402"/>
      <point x="806" y="402" type="curve" smooth="yes"/>
      <point x="725" y="402"/>
      <point x="671" y="343"/>
      <point x="671" y="264" type="curve" smooth="yes"/>
      <point x="671" y="217"/>
      <point x="680" y="176"/>
      <point x="700" y="133" type="curve"/>
      <point x="490" y="109" type="line"/>
      <point x="448" y="174"/>
      <point x="434" y="224"/>
      <point x="434" y="297" type="curve" smooth="yes"/>
      <point x="434" y="445"/>
      <point x="558" y="572"/>
      <point x="786" y="572" type="curve" smooth="yes"/>
      <point x="1003" y="572"/>
      <point x="1129" y="469"/>
      <point x="1129" y="312" type="curve" smooth="yes"/>
      <point x="1129" y="173"/>
      <point x="993" y="31"/>
      <point x="677" y="31" type="curve" smooth="yes"/>
      <point x="265" y="31"/>
      <point x="28" y="275"/>
      <point x="28" y="506" type="curve" smooth="yes"/>
      <point x="28" y="719"/>
      <point x="168" y="891"/>
      <point x="523" y="891" type="curve" smooth="yes"/>
      <point x="693" y="891" type="line"/>
      <point x="652" y="857" type="line"/>
    </contour>
    <contour>
      <point x="539" y="8" type="move" name="mark0"/>
    </contour>
    <contour>
      <point x="1187" y="8" type="move" name="x44"/>
    </contour>
    <contour>
      <point x="-141" y="8" type="move" name="x43"/>
    </contour>
  </outline>
</glyph>
<glyph name="thadeva" format="1">
  <advance width="1370"/>
  <unicode hex="0925"/>
  <outline>
    <contour>
      <point x="705" y="912" type="curve" smooth="yes"/>
      <point x="705" y="735"/>
      <point x="569" y="556"/>
      <point x="351" y="484" type="curve"/>
      <point x="353" y="564" type="line"/>
      <point x="425" y="473"/>
      <point x="513" y="427"/>
      <point x="606" y="427" type="curve" smooth="yes"/>
      <point x="750" y="427"/>
      <point x="873" y="493"/>
      <point x="955" y="655" type="curve"/>
      <point x="956" y="264" type="line"/>
      <point x="887" y="219"/>
      <point x="807" y="196"/>
      <point x="690" y="196" type="curve" smooth="yes"/>
      <point x="451" y="196"/>
      <point x="200" y="332"/>
      <point x="77" y="608" type="curve"/>
      <point x="77" y="612" type="line"/>
      <point x="305" y="689"/>
      <point x="459" y="832"/>
      <point x="459" y="972" type="curve" smooth="yes"/>
      <point x="459" y="1071"/>
      <point x="398" y="1133"/>
      <point x="325" y="1133" type="curve" smooth="yes"/>
      <point x="271" y="1133"/>
      <point x="245" y="1089"/>
      <point x="247" y="1045" type="curve" smooth="yes"/>
      <point x="250" y="968"/>
      <point x="311" y="906"/>
      <point x="451" y="854" type="curve"/>
      <point x="366" y="722" type="line"/>
      <point x="92" y="803"/>
      <point x="-15" y="959"/>
      <point x="-15" y="1114" type="curve" smooth="yes"/>
      <point x="-15" y="1234"/>
      <point x="79" y="1332"/>
      <point x="273" y="1332" type="curve" smooth="yes"/>
      <point x="566" y="1332"/>
      <point x="705" y="1117"/>
    </contour>
    <contour>
      <point x="901" y="1132" type="line"/>
      <point x="1189" y="1132" type="line"/>
      <point x="1189" y="0" type="line"/>
      <point x="901" y="0" type="line"/>
    </contour>
    <contour>
      <point x="1413" y="1096" type="line"/>
      <point x="787" y="1096" type="line"/>
      <point x="787" y="1288" type="line"/>
      <point x="1413" y="1288" type="line"/>
    </contour>
  </outline>
</glyph>
<glyph name="dadeva" format="1">
  <advance width="1124"/>
  <unicode hex="0926"/>
  <outline>
    <contour>
      <point x="-36" y="1096" type="line"/>
      <point x="-36" y="1288" type="line"/>
      <point x="1139" y="1288" type="line"/>
      <point x="1139" y="1096" type="line"/>
    </contour>
    <contour>
      <point x="671" y="176" type="line"/>
      <point x="883" y="243" type="line"/>
      <point x="1079" y="-132" type="line"/>
      <point x="868" y="-200" type="line"/>
    </contour>
    <contour>
      <point x="615" y="81" type="curve" smooth="yes"/>
      <point x="294" y="81"/>
      <point x="56" y="274"/>
      <point x="56" y="519" type="curve" smooth="yes"/>
      <point x="56" y="733"/>
      <point x="214" y="890"/>
      <point x="535" y="890" type="curve" smooth="yes"/>
      <point x="699" y="890" type="line"/>
      <point x="652" y="837" type="line"/>
      <point x="652" y="1131" type="line"/>
      <point x="926" y="1131" type="line"/>
      <point x="926" y="680" type="line"/>
      <point x="652" y="680" type="line"/>
      <point x="431" y="680"/>
      <point x="348" y="587"/>
      <point x="348" y="469" type="curve" smooth="yes"/>
      <point x="348" y="352"/>
      <point x="449" y="271"/>
      <point x="583" y="271" type="curve" smooth="yes"/>
      <point x="630" y="271"/>
      <point x="684" y="278"/>
      <point x="763" y="304" type="curve"/>
      <point x="655" y="213" type="line"/>
      <point x="621" y="265"/>
      <point x="605" y="322"/>
      <point x="605" y="361" type="curve" smooth="yes"/>
      <point x="605" y="418"/>
      <point x="649" y="480"/>
      <point x="760" y="480" type="curve" smooth="yes"/>
      <point x="930" y="480"/>
      <point x="1054" y="394"/>
      <point x="1054" y="305" type="curve" smooth="yes"/>
      <point x="1054" y="208"/>
      <point x="893" y="81"/>
    </contour>
    <contour>
      <point x="808" y="8" type="move" name="mark0"/>
    </contour>
    <contour>
      <point x="1148" y="8" type="move" name="x43"/>
    </contour>
    <contour>
      <point x="-83" y="8" type="move" name="x42"/>
    </contour>
  </outline>
</glyph>
<glyph name="dhadeva" format="1">
  <advance width="1297"/>
  <unicode hex="0927"/>
  <outline>
    <contour>
      <point x="675" y="674" type="line"/>
      <point x="664" y="673" type="line"/>
      <point x="483" y="663"/>
      <point x="422" y="592"/>
      <point x="422" y="516" type="curve" smooth="yes"/>
      <point x="422" y="449"/>
      <point x="481" y="401"/>
      <point x="563" y="402" type="curve" smooth="yes"/>
      <point x="696" y="405"/>
      <point x="820" y="505"/>
      <point x="886" y="630" type="curve"/>
      <point x="889" y="242" type="line"/>
      <point x="802" y="195"/>
      <point x="702" y="170"/>
      <point x="586" y="170" type="curve" smooth="yes"/>
      <point x="327" y="170"/>
      <point x="162" y="353"/>
      <point x="162" y="549" type="curve" smooth="yes"/>
      <point x="162" y="717"/>
      <point x="282" y="899"/>
      <point x="595" y="899" type="curve" smooth="yes"/>
      <point x="603" y="899" type="line"/>
    </contour>
    <contour>
      <point x="308" y="719" type="line"/>
      <point x="99" y="767"/>
      <point x="-25" y="892"/>
      <point x="-25" y="1081" type="curve" smooth="yes"/>
      <point x="-25" y="1232"/>
      <point x="87" y="1344"/>
      <point x="286" y="1344" type="curve" smooth="yes"/>
      <point x="402" y="1344"/>
      <point x="475" y="1328"/>
      <point x="561" y="1298" type="curve"/>
      <point x="534" y="1098" type="line"/>
      <point x="490" y="1113"/>
      <point x="442" y="1124"/>
      <point x="393" y="1124" type="curve" smooth="yes"/>
      <point x="307" y="1124"/>
      <point x="266" y="1074"/>
      <point x="266" y="1021" type="curve" smooth="yes"/>
      <point x="266" y="936"/>
      <point x="329" y="880"/>
      <point x="510" y="874" type="curve"/>
    </contour>
    <contour>
      <point x="828" y="1132" type="line"/>
      <point x="1116" y="1132" type="line"/>
      <point x="1116" y="-1" type="line"/>
      <point x="828" y="-1" type="line"/>
    </contour>
    <contour>
      <point x="1340" y="1095" type="line"/>
      <point x="731" y="1095" type="line"/>
      <point x="731" y="1288" type="line"/>
      <point x="1340" y="1288" type="line"/>
    </contour>
  </outline>
</glyph>
<glyph name="padeva" format="1">
  <advance width="1218"/>
  <unicode hex="092A"/>
  <outline>
    <contour>
      <point x="1262" y="1096" type="line"/>
      <point x="-64" y="1096" type="line"/>
      <point x="-64" y="1288" type="line"/>
      <point x="1262" y="1288" type="line"/>
    </contour>
    <contour>
      <point x="395" y="1187" type="line"/>
      <point x="395" y="692" type="line"/>
      <point x="395" y="588"/>
      <point x="445" y="532"/>
      <point x="538" y="532" type="curve" smooth="yes"/>
      <point x="626" y="532"/>
      <point x="695" y="561"/>
      <point x="776" y="630" type="curve"/>
      <point x="776" y="341" type="line"/>
      <point x="720" y="320"/>
      <point x="655" y="310"/>
      <point x="586" y="310" type="curve" smooth="yes"/>
      <point x="300" y="310"/>
      <point x="107" y="485"/>
      <point x="107" y="758" type="curve" smooth="yes"/>
      <point x="107" y="1187" type="line"/>
    </contour>
    <contour>
      <point x="749" y="1132" type="line"/>
      <point x="1037" y="1132" type="line"/>
      <point x="1037" y="0" type="line"/>
      <point x="749" y="0" type="line"/>
    </contour>
  </outline>
</glyph>
<glyph name="badeva" format="1">
  <advance width="1194"/>
  <unicode hex="092C"/>
  <outline>
    <contour>
      <point x="743" y="432" type="line"/>
      <point x="634" y="350" type="line"/>
      <point x="307" y="723" type="line"/>
      <point x="417" y="805" type="line"/>
    </contour>
    <component base="vadeva"/>
  </outline>
</glyph>
<glyph name="bhadeva" format="1">
  <advance width="1401"/>
  <unicode hex="092D"/>
  <outline>
    <contour>
      <point x="342" y="1018" type="line"/>
      <point x="342" y="1115"/>
      <point x="304" y="1160"/>
      <point x="246" y="1160" type="curve" smooth="yes"/>
      <point x="185" y="1160"/>
      <point x="162" y="1124"/>
      <point x="162" y="1071" type="curve" smooth="yes"/>
      <point x="162" y="998"/>
      <point x="217" y="933"/>
      <point x="395" y="918" type="curve"/>
      <point x="377" y="757" type="line"/>
      <point x="98" y="762"/>
      <point x="-88" y="895"/>
      <point x="-88" y="1117" type="curve" smooth="yes"/>
      <point x="-88" y="1244"/>
      <point x="-2" y="1362"/>
      <point x="216" y="1362" type="curve" smooth="yes"/>
      <point x="476" y="1362"/>
      <point x="629" y="1204"/>
      <point x="629" y="964" type="curve" smooth="yes"/>
      <point x="629" y="638" type="line"/>
      <point x="597" y="676" type="line"/>
      <point x="967" y="676" type="line"/>
      <point x="967" y="452" type="line"/>
      <point x="584" y="452" type="line"/>
      <point x="629" y="494" type="line"/>
      <point x="629" y="352" type="line"/>
      <point x="629" y="277"/>
      <point x="602" y="234"/>
      <point x="527" y="234" type="curve" smooth="yes"/>
      <point x="381" y="234"/>
      <point x="185" y="444"/>
      <point x="185" y="565" type="curve" smooth="yes"/>
      <point x="185" y="640"/>
      <point x="225" y="675"/>
      <point x="286" y="675" type="curve" smooth="yes"/>
      <point x="376" y="675" type="line"/>
      <point x="342" y="646" type="line"/>
    </contour>
    <contour>
      <point x="932" y="1132" type="line"/>
      <point x="1221" y="1132" type="line"/>
      <point x="1221" y="0" type="line"/>
      <point x="932" y="0" type="line"/>
    </contour>
    <contour>
      <point x="1444" y="1096" type="line"/>
      <point x="771" y="1096" type="line"/>
      <point x="771" y="1288" type="line"/>
      <point x="1444" y="1288" type="line"/>
    </contour>
  </outline>
</glyph>
<glyph name="madeva" format="1">
  <advance width="1298"/>
  <unicode hex="092E"/>
  <outline>
    <contour>
      <point x="-47" y="1096" type="line"/>
      <point x="-47" y="1288" type="line"/>
      <point x="1340" y="1288" type="line"/>
      <point x="1340" y="1096" type="line"/>
    </contour>
    <contour>
      <point x="200" y="1135" type="line"/>
      <point x="487" y="1135" type="line"/>
      <point x="487" y="638" type="line"/>
      <point x="455" y="676" type="line"/>
      <point x="880" y="676" type="line"/>
      <point x="880" y="452" type="line"/>
      <point x="442" y="452" type="line"/>
      <point x="487" y="494" type="line"/>
      <point x="487" y="352" type="line"/>
      <point x="487" y="277"/>
      <point x="460" y="234"/>
      <point x="385" y="234" type="curve" smooth="yes"/>
      <point x="239" y="234"/>
      <point x="43" y="444"/>
      <point x="43" y="565" type="curve" smooth="yes"/>
      <point x="43" y="640"/>
      <point x="83" y="675"/>
      <point x="144" y="675" type="curve" smooth="yes"/>
      <point x="234" y="675" type="line"/>
      <point x="200" y="646" type="line"/>
    </contour>
    <contour>
      <point x="829" y="1132" type="line"/>
      <point x="1117" y="1132" type="line"/>
      <point x="1117" y="0" type="line"/>
      <point x="829" y="0" type="line"/>
    </contour>
  </outline>
</glyph>
<glyph name="yadeva" format="1">
  <advance width="1274"/>
  <unicode hex="092F"/>
  <outline>
    <contour>
      <point x="-78" y="1096" type="line"/>
      <point x="-78" y="1288" type="line"/>
      <point x="1316" y="1288" type="line"/>
      <point x="1316" y="1096" type="line"/>
    </contour>
    <contour>
      <point x="260" y="1130" type="line"/>
      <point x="548" y="1130" type="line"/>
      <point x="548" y="939" type="line"/>
      <point x="548" y="732"/>
      <point x="469" y="594"/>
      <point x="241" y="524" type="curve"/>
      <point x="242" y="605" type="line"/>
      <point x="315" y="512"/>
      <point x="404" y="448"/>
      <point x="518" y="448" type="curve" smooth="yes"/>
      <point x="665" y="448"/>
      <point x="789" y="534"/>
      <point x="852" y="667" type="curve"/>
      <point x="852" y="288" type="line"/>
      <point x="790" y="244"/>
      <point x="723" y="218"/>
      <point x="600" y="218" type="curve" smooth="yes"/>
      <point x="326" y="218"/>
      <point x="85" y="391"/>
      <point x="-24" y="638" type="curve"/>
      <point x="-24" y="644" type="line"/>
      <point x="199" y="722"/>
      <point x="260" y="825"/>
      <point x="260" y="962" type="curve" smooth="yes"/>
    </contour>
    <contour>
      <point x="805" y="1132" type="line"/>
      <point x="1093" y="1132" type="line"/>
      <point x="1093" y="0" type="line"/>
      <point x="805" y="0" type="line"/>
    </contour>
  </outline>
</glyph>
<glyph name="radeva" format="1">
  <advance width="919"/>
  <unicode hex="0930"/>
  <outline>
    <contour>
      <point x="757" y="85" type="line"/>
      <point x="561" y="-46" type="line"/>
      <point x="110" y="544" type="line"/>
      <point x="30" y="648"/>
      <point x="0" y="695"/>
      <point x="0" y="755" type="curve" smooth="yes"/>
      <point x="0" y="813"/>
      <point x="50" y="867"/>
      <point x="122" y="867" type="curve" smooth="yes"/>
      <point x="193" y="867"/>
      <point x="242" y="812"/>
      <point x="311" y="719" type="curve" smooth="yes"/>
      <point x="374" y="632" type="line"/>
      <point x="361" y="613" type="line"/>
    </contour>
    <contour>
      <point x="274" y="681" type="line"/>
      <point x="431" y="725"/>
      <point x="487" y="804"/>
      <point x="487" y="942" type="curve" smooth="yes"/>
      <point x="487" y="1147" type="line"/>
      <point x="775" y="1147" type="line"/>
      <point x="775" y="898" type="line"/>
      <point x="775" y="711"/>
      <point x="664" y="527"/>
      <point x="443" y="450" type="curve"/>
    </contour>
    <contour>
      <point x="-67" y="1096" type="line"/>
      <point x="-67" y="1288" type="line"/>
      <point x="996" y="1288" type="line"/>
      <point x="996" y="1096" type="line"/>
    </contour>
    <contour>
      <point x="-2" y="8" type="move" name="x27"/>
    </contour>
    <contour>
      <point x="512" y="8" type="move" name="mark0"/>
    </contour>
  </outline>
</glyph>
<glyph name="vadeva" format="1">
  <advance width="1196"/>
  <unicode hex="0935"/>
  <outline>
    <contour>
      <point x="1238" y="1096" type="line"/>
      <point x="-20" y="1096" type="line"/>
      <point x="-20" y="1288" type="line"/>
      <point x="1238" y="1288" type="line"/>
    </contour>
    <contour>
      <point x="763" y="575" type="curve"/>
      <point x="763" y="269" type="line"/>
      <point x="692" y="217"/>
      <point x="599" y="194"/>
      <point x="504" y="194" type="curve" smooth="yes"/>
      <point x="228" y="194"/>
      <point x="40" y="407"/>
      <point x="40" y="624" type="curve" smooth="yes"/>
      <point x="40" y="806"/>
      <point x="195" y="947"/>
      <point x="413" y="947" type="curve" smooth="yes"/>
      <point x="592" y="947"/>
      <point x="686" y="919"/>
      <point x="812" y="852" type="curve"/>
      <point x="811" y="636" type="line"/>
      <point x="686" y="715"/>
      <point x="613" y="737"/>
      <point x="496" y="737" type="curve" smooth="yes"/>
      <point x="374" y="737"/>
      <point x="304" y="661"/>
      <point x="304" y="571" type="curve" smooth="yes"/>
      <point x="304" y="485"/>
      <point x="369" y="417"/>
      <point x="467" y="417" type="curve" smooth="yes"/>
      <point x="573" y="417"/>
      <point x="668" y="462"/>
    </contour>
    <contour>
      <point x="727" y="1132" type="line"/>
      <point x="1015" y="1132" type="line"/>
      <point x="1015" y="0" type="line"/>
      <point x="727" y="0" type="line"/>
    </contour>
  </outline>
</glyph>
<glyph name="avagrahadeva" format="1">
  <advance width="1187"/>
  <unicode hex="093D"/>
  <outline>
    <contour>
      <point x="0" y="0" type="line"/>
      <point x="1187" y="0" type="line"/>
      <point x="1187" y="20" type="line"/>
      <point x="0" y="20" type="line"/>
    </contour>
  </outline>
</glyph>
<glyph name="rvocalicvowelsigndeva" format="1">
  <advance width="0"/>
  <unicode hex="0943"/>
  <outline>
    <contour>
      <point x="-50" y="-547" type="line"/>
      <point x="-157" y="-582"/>
      <point x="-214" y="-592"/>
      <point x="-299" y="-592" type="curve" smooth="yes"/>
      <point x="-514" y="-592"/>
      <point x="-699" y="-477"/>
      <point x="-699" y="-271" type="curve" smooth="yes"/>
      <point x="-699" y="-91"/>
      <point x="-538" y="26"/>
      <point x="-318" y="31" type="curve" smooth="yes"/>
      <point x="-252" y="31"/>
      <point x="-206" y="-4"/>
      <point x="-171" y="-14" type="curve"/>
      <point x="-204" y="-19"/>
      <point x="-236" y="-164"/>
      <point x="-236" y="-202" type="curve"/>
      <point x="-265" y="-235"/>
      <point x="-262" y="-250"/>
      <point x="-263" y="-250" type="curve" smooth="yes"/>
      <point x="-333" y="-250"/>
      <point x="-367" y="-294"/>
      <point x="-357" y="-339" type="curve" smooth="yes"/>
      <point x="-357" y="-375"/>
      <point x="-332" y="-404"/>
      <point x="-269" y="-404" type="curve" smooth="yes"/>
      <point x="-218" y="-402"/>
      <point x="-158" y="-386"/>
      <point x="-86" y="-357" type="curve"/>
    </contour>
    <contour>
      <point x="-403" y="-3" type="move" name="_mark0"/>
    </contour>
  </outline>
</glyph>
<glyph name="ecandravowelsigndeva" format="1">
  <advance width="0"/>
  <unicode hex="0945"/>
  <outline>
    <contour>
      <point x="113" y="1635" type="line"/>
      <point x="19" y="1484"/>
      <point x="-148" y="1394"/>
      <point x="-343" y="1394" type="curve" smooth="yes"/>
      <point x="-534" y="1394"/>
      <point x="-684" y="1476"/>
      <point x="-810" y="1619" type="curve"/>
      <point x="-728" y="1781" type="line"/>
      <point x="-613" y="1671"/>
      <point x="-492" y="1591"/>
      <point x="-350" y="1593" type="curve" smooth="yes"/>
      <point x="-192" y="1595"/>
      <point x="-94" y="1667"/>
      <point x="11" y="1783" type="curve"/>
    </contour>
    <contour>
      <point x="35" y="-3" type="move" name="x14"/>
    </contour>
    <contour>
      <point x="-403" y="1271" type="move" name="_mark0"/>
    </contour>
  </outline>
</glyph>
<glyph name="aivowelsigndeva" format="1">
  <advance width="0"/>
  <unicode hex="0948"/>
  <outline>
    <contour>
      <point x="-745" y="1244" type="line"/>
      <point x="-1137" y="1573" type="line"/>
      <point x="-922" y="1718" type="line"/>
      <point x="-413" y="1244" type="line"/>
    </contour>
    <contour>
      <point x="-445" y="1244" type="line"/>
      <point x="-647" y="1773" type="line"/>
      <point x="-399" y="1836" type="line"/>
      <point x="-202" y="1244" type="line"/>
    </contour>
    <contour>
      <point x="49" y="8" type="move" name="x27"/>
    </contour>
    <contour>
      <point x="-424" y="1282" type="move" name="_mark0"/>
    </contour>
  </outline>
</glyph>
<glyph name="dddhadeva" format="1">
  <advance width="1167"/>
  <unicode hex="095C"/>
  <outline>
    <component base="nuktadeva" xOffset="1413" yOffset="36"/>
    <component base="ddadeva"/>
    <contour>
      <point x="1042" y="1274" type="move" name="mark0"/>
    </contour>
  </outline>
</glyph>
<glyph name="rhadeva" format="1">
  <advance width="1163"/>
  <unicode hex="095D"/>
  <outline>
    <component base="ddhadeva"/>
    <component base="nuktadeva" xOffset="1432" yOffset="14"/>
    <contour>
      <point x="711" y="1274" type="move" name="mark0"/>
    </contour>
  </outline>
</glyph>
<glyph name="yyadeva" format="1">
  <advance width="1312"/>
  <unicode hex="095F"/>
  <outline>
    <contour>
      <point x="0" y="0" type="line"/>
      <point x="1312" y="0" type="line"/>
      <point x="1312" y="20" type="line"/>
      <point x="0" y="20" type="line"/>
    </contour>
  </outline>
</glyph>
<glyph name="zerodeva" format="1">
  <advance width="1304"/>
  <unicode hex="0966"/>
  <outline>
    <contour>
      <point x="0" y="0" type="line"/>
      <point x="1304" y="0" type="line"/>
      <point x="1304" y="20" type="line"/>
      <point x="0" y="20" type="line"/>
    </contour>
  </outline>
</glyph>
<glyph name="onedeva" format="1">
  <advance width="1304"/>
  <unicode hex="0967"/>
  <outline>
    <contour>
      <point x="0" y="0" type="line"/>
      <point x="1304" y="0" type="line"/>
      <point x="1304" y="20" type="line"/>
      <point x="0" y="20" type="line"/>
    </contour>
  </outline>
</glyph>
<glyph name="threedeva" format="1">
  <advance width="1293"/>
  <unicode hex="0969"/>
  <outline>
    <contour>
      <point x="0" y="0" type="line"/>
      <point x="1293" y="0" type="line"/>
      <point x="1293" y="20" type="line"/>
      <point x="0" y="20" type="line"/>
    </contour>
  </outline>
</glyph>
<glyph name="sevendeva" format="1">
  <advance width="1293"/>
  <unicode hex="096D"/>
  <outline>
    <contour>
      <point x="946" y="673" type="curve"/>
      <point x="952" y="590"/>
      <point x="887" y="235"/>
      <point x="1003" y="235" type="curve"/>
      <point x="782" y="335"/>
      <point x="664" y="501"/>
      <point x="664" y="730" type="curve" smooth="yes"/>
      <point x="664" y="878"/>
      <point x="725" y="1058"/>
      <point x="801" y="1058" type="curve" smooth="yes"/>
      <point x="956" y="1058"/>
      <point x="1125" y="866"/>
      <point x="1125" y="621" type="curve" smooth="yes"/>
      <point x="1125" y="356"/>
      <point x="1024" y="190"/>
      <point x="855" y="188" type="curve" smooth="yes"/>
      <point x="559" y="188"/>
      <point x="282" y="457"/>
      <point x="282" y="1019" type="curve"/>
      <point x="238" y="1024"/>
      <point x="406" y="1090"/>
      <point x="406" y="1141" type="curve"/>
      <point x="408" y="620"/>
      <point x="633" y="493"/>
      <point x="786" y="493" type="curve" smooth="yes"/>
      <point x="945" y="493"/>
      <point x="1050" y="514"/>
      <point x="1050" y="579" type="curve" smooth="yes"/>
      <point x="1050" y="609"/>
      <point x="986" y="610"/>
      <point x="863" y="610" type="curve" smooth="yes"/>
      <point x="688" y="610"/>
      <point x="655" y="781"/>
      <point x="644" y="848" type="curve" smooth="yes"/>
      <point x="644" y="788"/>
      <point x="744" y="733"/>
    </contour>
  </outline>
</glyph>
<glyph name="gabardeva" format="1">
  <advance width="1362"/>
  <unicode hex="097B"/>
  <outline>
    <contour>
      <point x="191" y="-28" type="line"/>
      <point x="191" y="140" type="line"/>
      <point x="869" y="140" type="line"/>
      <point x="869" y="1077" type="line"/>
      <point x="566" y="1077" type="line"/>
      <point x="566" y="508" type="line"/>
      <point x="566" y="420"/>
      <point x="519" y="369"/>
      <point x="411" y="369" type="curve" smooth="yes"/>
      <point x="352" y="369"/>
      <point x="286" y="407"/>
      <point x="240" y="443" type="curve"/>
      <point x="195" y="473"/>
      <point x="158" y="503"/>
      <point x="139" y="529" type="curve" smooth="yes"/>
      <point x="105" y="578"/>
      <point x="86" y="621"/>
      <point x="86" y="655" type="curve" smooth="yes"/>
      <point x="86" y="749"/>
      <point x="163" y="774"/>
      <point x="264" y="779" type="curve"/>
      <point x="264" y="1077" type="line"/>
      <point x="12" y="1077" type="line"/>
      <point x="12" y="1274" type="line"/>
      <point x="1383" y="1274" type="line"/>
      <point x="1383" y="1077" type="line"/>
      <point x="1171" y="1077" type="line"/>
      <point x="1171" y="-28" type="line"/>
    </contour>
  </outline>
</glyph>
<glyph name="quotedblright.deva" format="1">
  <advance width="820"/>
  <unicode hex="201D"/>
  <outline>
    <contour>
      <point x="378" y="1296" type="line"/>
      <point x="348" y="1178"/>
      <point x="295" y="1034"/>
      <point x="220" y="865" type="curve"/>
      <point x="22" y="865" type="line"/>
      <point x="64" y="1042"/>
      <point x="94" y="1193"/>
      <point x="112" y="1316" type="curve"/>
      <point x="365" y="1316" type="line"/>
    </contour>
    <contour>
      <point x="798" y="1296" type="line"/>
      <point x="768" y="1178"/>
      <point x="715" y="1034"/>
      <point x="640" y="865" type="curve"/>
      <point x="443" y="865" type="line"/>
      <point x="484" y="1042"/>
      <point x="514" y="1193"/>
      <point x="533" y="1316" type="curve"/>
      <point x="785" y="1316" type="line"/>
    </contour>
  </outline>
</glyph>
<glyph name="uni25CC" format="1">
  <advance width="1172"/>
  <unicode hex="25CC"/>
  <outline>
    <contour>
      <point x="672" y="996" type="curve" smooth="yes"/>
      <point x="672" y="960"/>
      <point x="644" y="941"/>
      <point x="586" y="941" type="curve" smooth="yes"/>
      <point x="529" y="941"/>
      <point x="502" y="961"/>
      <point x="502" y="996" type="curve" smooth="yes"/>
      <point x="502" y="1032"/>
      <point x="528" y="1052"/>
      <point x="586" y="1052" type="curve" smooth="yes"/>
      <point x="643" y="1052"/>
      <point x="672" y="1032"/>
    </contour>
    <contour>
      <point x="392" y="894" type="curve" smooth="yes"/>
      <point x="392" y="858"/>
      <point x="364" y="838"/>
      <point x="307" y="838" type="curve" smooth="yes"/>
      <point x="251" y="838"/>
      <point x="222" y="858"/>
      <point x="222" y="894" type="curve" smooth="yes"/>
      <point x="222" y="930"/>
      <point x="251" y="950"/>
      <point x="307" y="950" type="curve" smooth="yes"/>
      <point x="364" y="950"/>
      <point x="392" y="930"/>
    </contour>
    <contour>
      <point x="953" y="894" type="curve" smooth="yes"/>
      <point x="953" y="858"/>
      <point x="925" y="838"/>
      <point x="868" y="838" type="curve" smooth="yes"/>
      <point x="812" y="838"/>
      <point x="784" y="858"/>
      <point x="784" y="894" type="curve" smooth="yes"/>
      <point x="784" y="930"/>
      <point x="812" y="950"/>
      <point x="868" y="950" type="curve" smooth="yes"/>
      <point x="925" y="950"/>
      <point x="953" y="930"/>
    </contour>
    <contour>
      <point x="1050" y="638" type="curve" smooth="yes"/>
      <point x="1050" y="602"/>
      <point x="1022" y="582"/>
      <point x="964" y="582" type="curve" smooth="yes"/>
      <point x="909" y="582"/>
      <point x="881" y="603"/>
      <point x="881" y="638" type="curve" smooth="yes"/>
      <point x="881" y="673"/>
      <point x="909" y="694"/>
      <point x="964" y="694" type="curve" smooth="yes"/>
      <point x="1022" y="694"/>
      <point x="1050" y="674"/>
    </contour>
    <contour>
      <point x="294" y="638" type="curve" smooth="yes"/>
      <point x="294" y="603"/>
      <point x="264" y="582"/>
      <point x="210" y="582" type="curve" smooth="yes"/>
      <point x="153" y="582"/>
      <point x="125" y="603"/>
      <point x="125" y="638" type="curve" smooth="yes"/>
      <point x="125" y="673"/>
      <point x="153" y="694"/>
      <point x="210" y="694" type="curve" smooth="yes"/>
      <point x="264" y="694"/>
      <point x="294" y="673"/>
    </contour>
    <contour>
      <point x="392" y="382" type="curve" smooth="yes"/>
      <point x="392" y="346"/>
      <point x="364" y="326"/>
      <point x="307" y="326" type="curve" smooth="yes"/>
      <point x="251" y="326"/>
      <point x="222" y="346"/>
      <point x="222" y="382" type="curve" smooth="yes"/>
      <point x="222" y="418"/>
      <point x="251" y="438"/>
      <point x="307" y="438" type="curve" smooth="yes"/>
      <point x="364" y="438"/>
      <point x="392" y="418"/>
    </contour>
    <contour>
      <point x="953" y="382" type="curve" smooth="yes"/>
      <point x="953" y="346"/>
      <point x="925" y="326"/>
      <point x="868" y="326" type="curve" smooth="yes"/>
      <point x="812" y="326"/>
      <point x="784" y="346"/>
      <point x="784" y="382" type="curve" smooth="yes"/>
      <point x="784" y="418"/>
      <point x="812" y="438"/>
      <point x="868" y="438" type="curve" smooth="yes"/>
      <point x="925" y="438"/>
      <point x="953" y="418"/>
    </contour>
    <contour>
      <point x="672" y="280" type="curve" smooth="yes"/>
      <point x="672" y="242"/>
      <point x="644" y="223"/>
      <point x="586" y="223" type="curve" smooth="yes"/>
      <point x="529" y="223"/>
      <point x="502" y="243"/>
      <point x="502" y="280" type="curve" smooth="yes"/>
      <point x="502" y="315"/>
      <point x="529" y="335"/>
      <point x="586" y="335" type="curve" smooth="yes"/>
      <point x="644" y="335"/>
      <point x="672" y="316"/>
    </contour>
  </outline>
</glyph>
<glyph name=".notdef" format="1">
  <advance width="1261"/>
  <outline>
    <contour>
      <point x="204" y="1342" type="line"/>
      <point x="1057" y="1342" type="line"/>
      <point x="1057" y="0" type="line"/>
      <point x="204" y="0" type="line"/>
    </contour>
    <contour>
      <point x="714" y="88" type="line"/>
      <point x="921" y="867" type="line"/>
      <point x="548" y="1254" type="line"/>
      <point x="341" y="475" type="line"/>
    </contour>
  </outline>
</glyph>
<glyph name="aivowelsignrephdeva" format="1">
  <advance width="0"/>
  <outline>
    <contour>
      <point x="-413" y="1244" type="line"/>
      <point x="-491" y="1350"/>
      <point x="-522" y="1412"/>
      <point x="-522" y="1492" type="curve" smooth="yes"/>
      <point x="-522" y="1634"/>
      <point x="-393" y="1768"/>
      <point x="-150" y="1768" type="curve" smooth="yes"/>
      <point x="-55" y="1768"/>
      <point x="-8" y="1761"/>
      <point x="61" y="1749" type="curve"/>
      <point x="47" y="1566" type="line"/>
      <point x="8" y="1573"/>
      <point x="-17" y="1575"/>
      <point x="-69" y="1575" type="curve" smooth="yes"/>
      <point x="-172" y="1575"/>
      <point x="-224" y="1520"/>
      <point x="-224" y="1421" type="curve" smooth="yes"/>
      <point x="-224" y="1370"/>
      <point x="-202" y="1313"/>
      <point x="-159" y="1244" type="curve"/>
    </contour>
    <component base="aivowelsigndeva"/>
    <contour>
      <point x="49" y="8" type="move" name="x38"/>
    </contour>
    <contour>
      <point x="-424" y="1282" type="move" name="_mark0"/>
    </contour>
  </outline>
</glyph>
<glyph name="auvowelsignanusvaradeva" format="1">
  <advance width="659"/>
  <outline>
    <contour>
      <point x="0" y="0" type="line"/>
      <point x="659" y="0" type="line"/>
      <point x="659" y="20" type="line"/>
      <point x="0" y="20" type="line"/>
    </contour>
  </outline>
</glyph>
<glyph name="baradeva" format="1">
  <advance width="1219"/>
  <outline>
    <contour>
      <point x="0" y="0" type="line"/>
      <point x="1219" y="0" type="line"/>
      <point x="1219" y="20" type="line"/>
      <point x="0" y="20" type="line"/>
    </contour>
  </outline>
</glyph>
<glyph name="chanuktadeva" format="1">
  <advance width="1534"/>
  <outline>
    <component base="chadeva"/>
    <component base="nuktadeva" xOffset="1404"/>
    <contour>
      <point x="1053" y="1274" type="move" name="mark0"/>
    </contour>
  </outline>
</glyph>
<glyph name="dadhadeva" format="1">
  <advance width="1905"/>
  <outline>
    <contour>
      <point x="0" y="0" type="line"/>
      <point x="1905" y="0" type="line"/>
      <point x="1905" y="20" type="line"/>
      <point x="0" y="20" type="line"/>
    </contour>
  </outline>
</glyph>
<glyph name="daghadeva" format="1">
  <advance width="1734"/>
  <outline>
    <contour>
      <point x="0" y="0" type="line"/>
      <point x="1734" y="0" type="line"/>
      <point x="1734" y="20" type="line"/>
      <point x="0" y="20" type="line"/>
    </contour>
  </outline>
</glyph>
<glyph name="danuktadeva" format="1">
  <advance width="1225"/>
  <outline>
    <component base="dadeva"/>
    <component base="nuktadeva" xOffset="1076" yOffset="142"/>
    <contour>
      <point x="915" y="0" type="move" name="mark0"/>
    </contour>
  </outline>
</glyph>
<glyph name="danuktaradeva" format="1">
  <advance width="1266"/>
  <outline>
    <component base="daradeva"/>
    <component base="nuktadeva" xOffset="1215" yOffset="9"/>
    <contour>
      <point x="910" y="0" type="move" name="mark0"/>
    </contour>
  </outline>
</glyph>
<glyph name="darvocalicdeva" format="1">
  <advance width="1266"/>
  <outline>
    <contour>
      <point x="0" y="0" type="line"/>
      <point x="1266" y="0" type="line"/>
      <point x="1266" y="20" type="line"/>
      <point x="0" y="20" type="line"/>
    </contour>
  </outline>
</glyph>
<glyph name="daudeva" format="1">
  <advance width="1224"/>
  <outline>
    <contour>
      <point x="0" y="0" type="line"/>
      <point x="1224" y="0" type="line"/>
      <point x="1224" y="20" type="line"/>
      <point x="0" y="20" type="line"/>
    </contour>
  </outline>
</glyph>
<glyph name="ddhanuktaraprehalfdeva" format="1">
  <advance width="1215"/>
  <outline>
    <contour>
      <point x="0" y="0" type="line"/>
      <point x="1215" y="0" type="line"/>
      <point x="1215" y="20" type="line"/>
      <point x="0" y="20" type="line"/>
    </contour>
  </outline>
</glyph>
<glyph name="ecandravowelsignrephanusvardeva" format="1">
  <advance width="98"/>
  <outline>
    <contour>
      <point x="-435" y="1244" type="line"/>
      <point x="-454" y="1272"/>
      <point x="-473" y="1306"/>
      <point x="-492" y="1341" type="curve"/>
      <point x="-536" y="1331"/>
      <point x="-584" y="1326"/>
      <point x="-643" y="1326" type="curve" smooth="yes"/>
      <point x="-889" y="1326"/>
      <point x="-1077" y="1469"/>
      <point x="-1174" y="1741" type="curve"/>
      <point x="-1073" y="1775"/>
      <point x="-973" y="1811"/>
      <point x="-873" y="1846" type="curve"/>
      <point x="-812" y="1643"/>
      <point x="-746" y="1547"/>
      <point x="-658" y="1547" type="curve" smooth="yes"/>
      <point x="-568" y="1547"/>
      <point x="-512" y="1643"/>
      <point x="-479" y="1847" type="curve"/>
      <point x="-330" y="1795" type="line"/>
      <point x="-269" y="1817"/>
      <point x="-196" y="1829"/>
      <point x="-109" y="1829" type="curve" smooth="yes"/>
      <point x="-11" y="1829"/>
      <point x="87" y="1816"/>
      <point x="191" y="1789" type="curve"/>
      <point x="130" y="1573" type="line"/>
      <point x="55" y="1598"/>
      <point x="-5" y="1610"/>
      <point x="-48" y="1610" type="curve" smooth="yes"/>
      <point x="-128" y="1610"/>
      <point x="-164" y="1562"/>
      <point x="-164" y="1467" type="curve" smooth="yes"/>
      <point x="-164" y="1404"/>
      <point x="-128" y="1313"/>
      <point x="-74" y="1244" type="curve"/>
    </contour>
    <contour>
      <point x="3" y="1545" type="curve" smooth="yes"/>
      <point x="51" y="1545"/>
      <point x="90" y="1532"/>
      <point x="111" y="1511" type="curve" smooth="yes"/>
      <point x="144" y="1480"/>
      <point x="163" y="1454"/>
      <point x="163" y="1431" type="curve" smooth="yes"/>
      <point x="163" y="1410"/>
      <point x="143" y="1380"/>
      <point x="112" y="1350" type="curve" smooth="yes"/>
      <point x="90" y="1330"/>
      <point x="51" y="1317"/>
      <point x="3" y="1317" type="curve" smooth="yes"/>
      <point x="-46" y="1317"/>
      <point x="-83" y="1328"/>
      <point x="-108" y="1350" type="curve"/>
      <point x="-139" y="1380"/>
      <point x="-156" y="1408"/>
      <point x="-156" y="1431" type="curve" smooth="yes"/>
      <point x="-156" y="1455"/>
      <point x="-139" y="1481"/>
      <point x="-108" y="1511" type="curve"/>
      <point x="-84" y="1533"/>
      <point x="-49" y="1545"/>
    </contour>
    <contour>
      <point x="49" y="8" type="move" name="x41"/>
    </contour>
    <contour>
      <point x="-424" y="1282" type="move" name="_mark0"/>
    </contour>
  </outline>
</glyph>
<glyph name="ecandravowelsignrephdeva" format="1">
  <advance width="71"/>
  <outline>
    <contour>
      <point x="-403" y="1266" type="line"/>
      <point x="-431" y="1311"/>
      <point x="-453" y="1363"/>
      <point x="-472" y="1417" type="curve"/>
      <point x="-524" y="1388"/>
      <point x="-585" y="1364"/>
      <point x="-658" y="1364" type="curve" smooth="yes"/>
      <point x="-893" y="1364"/>
      <point x="-1058" y="1514"/>
      <point x="-1147" y="1759" type="curve"/>
      <point x="-1074" y="1783"/>
      <point x="-979" y="1817"/>
      <point x="-907" y="1843" type="curve"/>
      <point x="-849" y="1656"/>
      <point x="-782" y="1547"/>
      <point x="-670" y="1547" type="curve" smooth="yes"/>
      <point x="-556" y="1547"/>
      <point x="-501" y="1656"/>
      <point x="-467" y="1844" type="curve"/>
      <point x="-331" y="1796" type="line"/>
      <point x="-270" y="1824"/>
      <point x="-196" y="1839"/>
      <point x="-112" y="1839" type="curve" smooth="yes"/>
      <point x="-23" y="1839"/>
      <point x="65" y="1826"/>
      <point x="157" y="1799" type="curve"/>
      <point x="105" y="1621" type="line"/>
      <point x="39" y="1645"/>
      <point x="-18" y="1657"/>
      <point x="-63" y="1657" type="curve" smooth="yes"/>
      <point x="-157" y="1657"/>
      <point x="-206" y="1602"/>
      <point x="-206" y="1497" type="curve" smooth="yes"/>
      <point x="-206" y="1426"/>
      <point x="-169" y="1337"/>
      <point x="-118" y="1266" type="curve"/>
    </contour>
    <contour>
      <point x="-403" y="1271" type="move" name="_mark0"/>
    </contour>
  </outline>
</glyph>
<glyph name="garaprehalfdeva" format="1">
  <advance width="868"/>
  <outline>
    <contour>
      <point x="572" y="1077" type="line"/>
      <point x="572" y="488" type="line"/>
      <point x="572" y="398"/>
      <point x="525" y="348"/>
      <point x="417" y="348" type="curve" smooth="yes"/>
      <point x="357" y="348"/>
      <point x="291" y="386"/>
      <point x="246" y="422" type="curve"/>
      <point x="203" y="451"/>
      <point x="164" y="482"/>
      <point x="144" y="509" type="curve"/>
      <point x="113" y="555"/>
      <point x="92" y="601"/>
      <point x="92" y="634" type="curve" smooth="yes"/>
      <point x="92" y="728"/>
      <point x="168" y="753"/>
      <point x="271" y="758" type="curve"/>
      <point x="271" y="1077" type="line"/>
      <point x="17" y="1077" type="line"/>
      <point x="17" y="1274" type="line"/>
      <point x="887" y="1274" type="line"/>
      <point x="887" y="1077" type="line"/>
    </contour>
    <contour>
      <point x="1022" y="273" type="line"/>
      <point x="877" y="191"/>
      <point x="592" y="18"/>
      <point x="446" y="-64" type="curve"/>
      <point x="440" y="-56"/>
      <point x="313" y="107"/>
      <point x="307" y="115" type="curve"/>
      <point x="355" y="145"/>
      <point x="862" y="403"/>
      <point x="911" y="432" type="curve"/>
    </contour>
  </outline>
</glyph>
<glyph name="harauudeva" format="1">
  <advance width="1367"/>
  <outline>
    <contour>
      <point x="0" y="0" type="line"/>
      <point x="1367" y="0" type="line"/>
      <point x="1367" y="20" type="line"/>
      <point x="0" y="20" type="line"/>
    </contour>
  </outline>
</glyph>
<glyph name="hauuUIdeva" format="1">
  <advance width="1356"/>
  <outline>
    <contour>
      <point x="691" y="45" type="line"/>
      <point x="772" y="42"/>
      <point x="838" y="32"/>
      <point x="907" y="12" type="curve"/>
      <point x="907" y="23" type="line"/>
      <point x="871" y="85"/>
      <point x="837" y="147"/>
      <point x="802" y="208" type="curve"/>
      <point x="854" y="225"/>
      <point x="876" y="247"/>
      <point x="876" y="276" type="curve" smooth="yes"/>
      <point x="876" y="325"/>
      <point x="817" y="348"/>
      <point x="700" y="348" type="curve" smooth="yes"/>
      <point x="560" y="348"/>
      <point x="489" y="307"/>
      <point x="489" y="242" type="curve" smooth="yes"/>
      <point x="490" y="172"/>
      <point x="526" y="126"/>
      <point x="688" y="45" type="curve"/>
    </contour>
    <contour>
      <point x="217" y="-255" type="curve" smooth="yes"/>
      <point x="217" y="-179"/>
      <point x="251" y="-112"/>
      <point x="321" y="-51" type="curve"/>
      <point x="321" y="-41" type="line"/>
      <point x="171" y="66"/>
      <point x="106" y="161"/>
      <point x="106" y="268" type="curve" smooth="yes"/>
      <point x="106" y="340"/>
      <point x="145" y="405"/>
      <point x="222" y="464" type="curve"/>
      <point x="222" y="473" type="line"/>
      <point x="164" y="538"/>
      <point x="133" y="604"/>
      <point x="133" y="671" type="curve" smooth="yes"/>
      <point x="133" y="754"/>
      <point x="185" y="823"/>
      <point x="260" y="873" type="curve" smooth="yes"/>
      <point x="293" y="895"/>
      <point x="344" y="912"/>
      <point x="403" y="924" type="curve"/>
      <point x="451" y="932"/>
      <point x="520" y="937"/>
      <point x="607" y="937" type="curve"/>
      <point x="785" y="937" type="line"/>
      <point x="785" y="1036" type="line"/>
      <point x="8" y="1036" type="line"/>
      <point x="8" y="1274" type="line"/>
      <point x="1371" y="1274" type="line"/>
      <point x="1371" y="1036" type="line"/>
      <point x="1165" y="1036" type="line"/>
      <point x="1165" y="698" type="line"/>
      <point x="610" y="698" type="line"/>
      <point x="576" y="698"/>
      <point x="552" y="695"/>
      <point x="533" y="689" type="curve" smooth="yes"/>
      <point x="517" y="683"/>
      <point x="508" y="660"/>
      <point x="508" y="623" type="curve" smooth="yes"/>
      <point x="508" y="601"/>
      <point x="510" y="586"/>
      <point x="516" y="575" type="curve"/>
      <point x="585" y="585"/>
      <point x="657" y="589"/>
      <point x="724" y="589" type="curve" smooth="yes"/>
      <point x="883" y="589"/>
      <point x="1019" y="555"/>
      <point x="1105" y="508" type="curve"/>
      <point x="1194" y="449"/>
      <point x="1254" y="374"/>
      <point x="1254" y="299" type="curve" smooth="yes"/>
      <point x="1254" y="168"/>
      <point x="1164" y="82"/>
      <point x="956" y="9" type="curve"/>
      <point x="956" y="-5" type="line"/>
      <point x="978" y="-14"/>
      <point x="1017" y="-33"/>
      <point x="1040" y="-44" type="curve"/>
      <point x="1159" y="-111"/>
      <point x="1288" y="-216"/>
      <point x="1401" y="-352" type="curve"/>
      <point x="1312" y="-404"/>
      <point x="1224" y="-451"/>
      <point x="1134" y="-502" type="curve"/>
      <point x="964" y="-273"/>
      <point x="820" y="-173"/>
      <point x="674" y="-173" type="curve" smooth="yes"/>
      <point x="604" y="-173"/>
      <point x="562" y="-200"/>
      <point x="562" y="-251" type="curve" smooth="yes"/>
      <point x="562" y="-298"/>
      <point x="596" y="-322"/>
      <point x="648" y="-322" type="curve" smooth="yes"/>
      <point x="692" y="-322"/>
      <point x="754" y="-306"/>
      <point x="844" y="-271" type="curve"/>
      <point x="870" y="-343"/>
      <point x="899" y="-414"/>
      <point x="926" y="-486" type="curve"/>
      <point x="820" y="-523"/>
      <point x="721" y="-541"/>
      <point x="635" y="-541" type="curve" smooth="yes"/>
      <point x="508" y="-541"/>
      <point x="406" y="-512"/>
      <point x="336" y="-460" type="curve"/>
      <point x="259" y="-400"/>
      <point x="217" y="-328"/>
    </contour>
  </outline>
</glyph>
<glyph name="havadeva" format="1">
  <advance width="1794"/>
  <outline>
    <contour>
      <point x="0" y="0" type="line"/>
      <point x="1794" y="0" type="line"/>
      <point x="1794" y="20" type="line"/>
      <point x="0" y="20" type="line"/>
    </contour>
  </outline>
</glyph>
<glyph name="iivowelsignrephanusvaradeva" format="1">
  <advance width="659"/>
  <outline>
    <contour>
      <point x="618" y="1561" type="curve" smooth="yes"/>
      <point x="714" y="1561"/>
      <point x="755" y="1501"/>
      <point x="755" y="1449" type="curve" smooth="yes"/>
      <point x="755" y="1400"/>
      <point x="714" y="1338"/>
      <point x="618" y="1338" type="curve" smooth="yes"/>
      <point x="528" y="1338"/>
      <point x="481" y="1397"/>
      <point x="481" y="1449" type="curve" smooth="yes"/>
      <point x="481" y="1502"/>
      <point x="527" y="1561"/>
    </contour>
    <contour>
      <point x="235" y="1244" type="line"/>
      <point x="157" y="1350"/>
      <point x="112" y="1431"/>
      <point x="112" y="1547" type="curve" smooth="yes"/>
      <point x="112" y="1686"/>
      <point x="253" y="1834"/>
      <point x="477" y="1834" type="curve" smooth="yes"/>
      <point x="601" y="1834"/>
      <point x="650" y="1826"/>
      <point x="715" y="1813" type="curve"/>
      <point x="701" y="1628" type="line"/>
      <point x="663" y="1635"/>
      <point x="640" y="1638"/>
      <point x="590" y="1638" type="curve" smooth="yes"/>
      <point x="482" y="1638"/>
      <point x="412" y="1553"/>
      <point x="412" y="1458" type="curve" smooth="yes"/>
      <point x="412" y="1380"/>
      <point x="446" y="1316"/>
      <point x="492" y="1244" type="curve"/>
    </contour>
    <component base="iivowelsigndeva"/>
  </outline>
</glyph>
<glyph name="jharadeva" format="1">
  <advance width="1672"/>
  <outline>
    <contour>
      <point x="0" y="0" type="line"/>
      <point x="1672" y="0" type="line"/>
      <point x="1672" y="20" type="line"/>
      <point x="0" y="20" type="line"/>
    </contour>
  </outline>
</glyph>
<glyph name="khanuktaprehalfdeva" format="1">
  <advance width="1531"/>
  <outline>
    <contour>
      <point x="0" y="0" type="line"/>
      <point x="1531" y="0" type="line"/>
      <point x="1531" y="20" type="line"/>
      <point x="0" y="20" type="line"/>
    </contour>
  </outline>
</glyph>
<glyph name="khaprehalfdeva" format="1">
  <advance width="1292"/>
  <outline>
    <contour>
      <point x="0" y="0" type="line"/>
      <point x="1292" y="0" type="line"/>
      <point x="1292" y="20" type="line"/>
      <point x="0" y="20" type="line"/>
    </contour>
  </outline>
</glyph>
<glyph name="llaradeva" format="1">
  <advance width="1607"/>
  <outline>
    <component base="vattudeva" xOffset="1622"/>
    <component base="lladeva"/>
    <contour>
      <point x="1137" y="1274" type="move" name="mark0"/>
    </contour>
  </outline>
</glyph>
<glyph name="llvocalicnuktadeva" format="1">
  <advance width="1686"/>
  <outline>
    <component base="llvocalicdeva"/>
    <component base="nuktadeva" xOffset="1154" yOffset="1"/>
    <contour>
      <point x="1066" y="1274" type="move" name="mark0"/>
    </contour>
  </outline>
</glyph>
<glyph name="ngayadeva" format="1">
  <advance width="3030"/>
  <outline>
    <contour>
      <point x="0" y="0" type="line"/>
      <point x="3030" y="0" type="line"/>
      <point x="3030" y="20" type="line"/>
      <point x="0" y="20" type="line"/>
    </contour>
  </outline>
</glyph>
<glyph name="ovowelsignrephdeva" format="1">
  <advance width="592"/>
  <outline>
    <contour>
      <point x="0" y="0" type="line"/>
      <point x="592" y="0" type="line"/>
      <point x="592" y="20" type="line"/>
      <point x="0" y="20" type="line"/>
    </contour>
  </outline>
</glyph>
<glyph name="phaprehalfdeva" format="1">
  <advance width="1302"/>
  <outline>
    <contour>
      <point x="0" y="0" type="line"/>
      <point x="1302" y="0" type="line"/>
      <point x="1302" y="20" type="line"/>
      <point x="0" y="20" type="line"/>
    </contour>
  </outline>
</glyph>
<glyph name="raprehalfdeva" format="1">
  <advance width="635"/>
  <outline>
    <contour>
      <point x="177" y="1092" type="line"/>
      <point x="-51" y="1263" type="line"/>
      <point x="574" y="1288" type="line"/>
      <point x="802" y="1117" type="line"/>
    </contour>
    <contour>
      <point x="825" y="469" type="line"/>
      <point x="713" y="421"/>
      <point x="636" y="407"/>
      <point x="503" y="407" type="curve" smooth="yes"/>
      <point x="341" y="407"/>
      <point x="142" y="474"/>
      <point x="12" y="570" type="curve"/>
      <point x="80" y="761" type="line"/>
      <point x="195" y="699"/>
      <point x="336" y="664"/>
      <point x="448" y="664" type="curve" smooth="yes"/>
      <point x="552" y="664"/>
      <point x="638" y="684"/>
      <point x="751" y="734" type="curve"/>
    </contour>
  </outline>
</glyph>
<glyph name="rhaaltdeva" format="1">
  <advance width="1360"/>
  <outline>
    <contour>
      <point x="0" y="0" type="line"/>
      <point x="1360" y="0" type="line"/>
      <point x="1360" y="20" type="line"/>
      <point x="0" y="20" type="line"/>
    </contour>
  </outline>
</glyph>
<glyph name="shaladevaMAR" format="1">
  <advance width="2574"/>
  <outline>
    <contour>
      <point x="0" y="0" type="line"/>
      <point x="2574" y="0" type="line"/>
      <point x="2574" y="20" type="line"/>
      <point x="0" y="20" type="line"/>
    </contour>
  </outline>
</glyph>
<glyph name="taraprehalfdeva" format="1">
  <advance width="901"/>
  <outline>
    <contour>
      <point x="0" y="0" type="line"/>
      <point x="901" y="0" type="line"/>
      <point x="901" y="20" type="line"/>
      <point x="0" y="20" type="line"/>
    </contour>
  </outline>
</glyph>
<glyph name="tatadeva" format="1">
  <advance width="1636"/>
  <outline>
    <contour>
      <point x="1228" y="792" type="line"/>
      <point x="1121" y="767" type="line"/>
      <point x="1073" y="767"/>
      <point x="968" y="764"/>
      <point x="939" y="759" type="curve"/>
      <point x="902" y="750"/>
      <point x="872" y="388"/>
      <point x="872" y="331" type="curve" smooth="yes"/>
      <point x="872" y="266"/>
      <point x="902" y="199"/>
      <point x="1028" y="111" type="curve"/>
      <point x="869" y="156" type="line"/>
      <point x="658" y="317"/>
      <point x="488" y="442"/>
      <point x="488" y="561" type="curve" smooth="yes"/>
      <point x="464" y="582"/>
      <point x="440" y="603"/>
      <point x="430" y="613" type="curve"/>
      <point x="430" y="621" type="line"/>
      <point x="413" y="609"/>
      <point x="378" y="593"/>
      <point x="378" y="573" type="curve"/>
      <point x="353" y="522"/>
      <point x="370" y="481"/>
      <point x="380" y="451" type="curve"/>
      <point x="269" y="430" type="line"/>
      <point x="250" y="447"/>
      <point x="232" y="637"/>
      <point x="215" y="656" type="curve"/>
      <point x="971" y="656" type="line"/>
      <point x="950" y="681"/>
      <point x="932" y="849"/>
      <point x="932" y="883" type="curve"/>
      <point x="932" y="905"/>
      <point x="141" y="930"/>
      <point x="157" y="944" type="curve"/>
      <point x="39" y="1114" type="line"/>
      <point x="1276" y="1140" type="line"/>
      <point x="1561" y="968" type="line"/>
      <point x="1414" y="1077" type="line"/>
      <point x="1106" y="332" type="line"/>
      <point x="829" y="357" type="line"/>
    </contour>
  </outline>
</glyph>
<glyph name="thaprehalfdeva" format="1">
  <advance width="884"/>
  <outline>
    <contour>
      <point x="0" y="0" type="line"/>
      <point x="884" y="0" type="line"/>
      <point x="884" y="20" type="line"/>
      <point x="0" y="20" type="line"/>
    </contour>
  </outline>
</glyph>
<glyph name="tharaprehalfdeva" format="1">
  <advance width="1013"/>
  <outline>
    <contour>
      <point x="0" y="0" type="line"/>
      <point x="1013" y="0" type="line"/>
      <point x="1013" y="20" type="line"/>
      <point x="0" y="20" type="line"/>
    </contour>
  </outline>
</glyph>
<glyph name="ttanuktadeva" format="1">
  <advance width="1090"/>
  <outline>
    <component base="ttadeva"/>
    <component base="nuktadeva" xOffset="1249"/>
    <contour>
      <point x="657" y="1274" type="move" name="mark0"/>
    </contour>
  </outline>
</glyph>
<glyph name="ttaradeva" format="1">
  <advance width="1087"/>
  <outline>
    <component base="vattudeva" xOffset="1116"/>
    <component base="ttadeva"/>
    <contour>
      <point x="657" y="1274" type="move" name="mark0"/>
    </contour>
  </outline>
</glyph>
<glyph name="ttattadeva" format="1">
  <advance width="1229"/>
  <outline>
    <contour>
      <point x="0" y="0" type="line"/>
      <point x="1229" y="0" type="line"/>
      <point x="1229" y="20" type="line"/>
      <point x="0" y="20" type="line"/>
    </contour>
  </outline>
</glyph>
<glyph name="tthanuktadeva" format="1">
  <advance width="1319"/>
  <outline>
    <component base="tthadeva"/>
    <component base="nuktadeva" xOffset="1284"/>
    <contour>
      <point x="658" y="1274" type="move" name="mark0"/>
    </contour>
  </outline>
</glyph>
<glyph name="ttharadeva" format="1">
  <advance width="1252"/>
  <outline>
    <component base="vattudeva" xOffset="1203"/>
    <component base="tthadeva"/>
    <contour>
      <point x="658" y="1274" type="move" name="mark0"/>
    </contour>
  </outline>
</glyph>
<glyph name="yaprehalfdeva" format="1">
  <advance width="769"/>
  <outline>
    <contour>
      <point x="0" y="0" type="line"/>
      <point x="769" y="0" type="line"/>
      <point x="769" y="20" type="line"/>
      <point x="0" y="20" type="line"/>
    </contour>
  </outline>
</glyph>
<glyph name="yaraprehalfdeva" format="1">
  <advance width="848"/>
  <outline>
    <contour>
      <point x="0" y="0" type="line"/>
      <point x="848" y="0" type="line"/>
      <point x="848" y="20" type="line"/>
      <point x="0" y="20" type="line"/>
    </contour>
  </outline>
</glyph>
